<?xml version="1.0" encoding="UTF-8" standalone="no"?>
<!-- Created with Inkscape (http://www.inkscape.org/) -->

<svg
   width="46.651516mm"
   height="26.958063mm"
   viewBox="0 0 46.651516 26.958063"
   version="1.1"
   id="svg1"
   xmlns="http://www.w3.org/2000/svg"
   xmlns:svg="http://www.w3.org/2000/svg">
  <defs
     id="defs1" />
  <g
     id="layer1"
     transform="translate(-81.491646,-134.93742)">
    <path
       style="fill:#000000;stroke-width:0.264583"
       d="m 116.05396,161.8326 c 0,-0.0346 -0.0528,-0.12187 -0.11722,-0.19402 l -0.11722,-0.13119 -0.32391,0.17471 -0.32391,0.17471 -0.67012,-0.0257 c -0.82117,-0.0315 -1.22483,-0.10453 -1.67717,-0.30348 -0.45249,-0.19902 -0.66216,-0.22434 -0.82116,-0.0991 -0.10687,0.0841 -0.14974,0.0909 -0.41679,0.0659 -0.18637,-0.0174 -0.47919,-0.004 -0.78317,0.0367 -0.26702,0.0355 -0.88244,0.0701 -1.3676,0.0768 l -0.8821,0.0123 -0.0838,-0.10341 c -0.0796,-0.0982 -0.0823,-0.14627 -0.0173,-0.3032 0.0215,-0.0519 -0.0249,-0.0917 -0.19628,-0.16867 -0.18215,-0.0818 -0.2962,-0.10087 -0.60542,-0.1014 -0.34329,-5.3e-4 -0.40329,0.0117 -0.60617,0.12408 -0.12384,0.0686 -0.28218,0.18966 -0.35186,0.26902 -0.0697,0.0794 -0.13334,0.13754 -0.14146,0.12927 -0.008,-0.008 0.0106,-0.0886 0.0416,-0.17855 0.0776,-0.2253 0.24715,-0.3891 0.56411,-0.54513 0.21664,-0.10666 0.33625,-0.13596 0.61423,-0.15048 0.36163,-0.0189 0.33647,-0.025 1.19188,0.28782 0.23665,0.0865 0.30892,0.0916 1.05833,0.0738 0.62294,-0.0148 0.84968,-0.0357 1.00537,-0.0928 0.11057,-0.0405 0.2106,-0.0892 0.22229,-0.10812 0.0117,-0.0189 -0.12131,-0.17742 -0.29555,-0.35223 l -0.31681,-0.31784 -0.22298,0.0596 c -0.81689,0.21838 -2.0877,0.34258 -2.35832,0.23048 -0.1389,-0.0575 -0.19834,-0.18948 -0.15164,-0.33661 0.0596,-0.18786 -0.43501,-0.23698 -0.74378,-0.0739 -0.16156,0.0854 -0.39297,0.32636 -0.57969,0.60372 -0.0478,0.071 -0.0523,0.0596 -0.0366,-0.093 0.0531,-0.51712 0.50496,-0.94066 1.04716,-0.98157 0.19712,-0.0149 0.28736,0.005 0.54238,0.11642 0.37252,0.1635 0.74196,0.20279 1.23706,0.13154 0.43425,-0.0625 0.88394,-0.17121 0.88394,-0.21372 0,-0.0609 -1.25444,-1.25233 -1.57825,-1.49903 -0.27958,-0.21302 -0.40756,-0.27621 -0.87284,-0.43101 -1.82056,-0.60568 -3.43474,-1.61879 -4.66091,-2.92531 -0.19791,-0.21088 -0.4058,-0.4073 -0.46198,-0.4365 -0.0562,-0.0292 -0.3705,-0.10608 -0.6985,-0.17085 -1.12083,-0.22134 -2.126154,-0.51059 -3.094023,-0.8902 -0.34925,-0.13698 -0.873125,-0.30725 -1.164167,-0.37837 -0.291044,-0.0711 -0.789604,-0.20733 -1.107916,-0.3027 l -0.578747,-0.17339 -0.754753,0.21439 c -1.460108,0.41474 -2.857317,0.71655 -3.86356,0.83457 -0.315806,0.037 -0.711742,0.0933 -0.879858,0.1251 -0.339652,0.0642 -2.262637,0.74518 -3.504334,1.24104 -0.770815,0.30781 -0.81856,0.32116 -1.145726,0.32035 -0.262981,-5.3e-4 -0.38516,-0.022 -0.531949,-0.0931 -0.238823,-0.11561 -0.338559,-0.11391 -0.627401,0.0107 -0.126909,0.0548 -0.260259,0.0893 -0.296334,0.0768 -0.123032,-0.0426 -0.340757,-0.28084 -0.340757,-0.37288 0,-0.11883 0.132246,-0.28508 0.318194,-0.4 0.226241,-0.13983 0.176002,-0.30641 -0.127771,-0.42367 l -0.126923,-0.049 0.15935,-0.13887 c 0.178276,-0.15537 0.532158,-0.35499 1.0005,-0.56437 0.172251,-0.077 0.457335,-0.22752 0.633521,-0.33447 0.176186,-0.10695 0.384975,-0.22146 0.463976,-0.25447 0.079,-0.033 0.136816,-0.0659 0.128479,-0.073 -0.0083,-0.007 -0.234234,0.003 -0.501993,0.0219 -0.551426,0.0396 -0.78596,0.0943 -1.430362,0.33353 -0.544406,0.20213 -0.717296,0.24186 -1.21599,0.27943 -0.443,0.0334 -0.99051,-0.0285 -1.382216,-0.15618 -0.322455,-0.10511 -0.564179,-0.24523 -0.512386,-0.29703 0.07056,-0.0705 1.127894,-0.42175 1.849399,-0.61428 1.933023,-0.51581 2.97366,-0.74285 4.337697,-0.94636 1.116802,-0.16663 2.577745,-0.57078 4.471024,-1.23687 0.896872,-0.31553 1.280922,-0.48902 1.693334,-0.76493 0.437319,-0.29257 0.608846,-0.45126 0.692705,-0.64083 0.04647,-0.10507 0.135991,-0.21585 0.209489,-0.25927 0.07059,-0.0417 0.151839,-0.11972 0.180563,-0.17339 0.07613,-0.14226 0.443058,-0.44324 0.689289,-0.56542 0.20982,-0.10411 0.304017,-0.21167 0.185378,-0.21167 -0.03326,0 -0.09299,-0.0359 -0.132736,-0.0799 -0.06866,-0.0759 -0.06687,-0.0841 0.03563,-0.16472 0.05934,-0.0467 0.246076,-0.14836 0.414959,-0.22594 1.052375,-0.48348 2.973028,-1.5478 3.757229,-2.08205 1.248786,-0.85075 1.412326,-0.94443 2.383456,-1.3653 0.20494,-0.0888 0.52879,-0.25576 0.71966,-0.37099 0.68086,-0.41102 0.98757,-0.57162 1.38421,-0.7248 0.83774,-0.32352 1.12047,-0.48583 1.64853,-0.94638 0.45233,-0.3945 1.04597,-0.77102 1.7465,-1.10773 0.8624,-0.41451 1.64099,-0.68355 2.94391,-1.01727 0.18962,-0.0486 0.61056,-0.31746 0.96356,-0.6155 0.11642,-0.0983 0.42122,-0.32985 0.67734,-0.51458 0.25611,-0.18473 0.62759,-0.46699 0.8255,-0.62726 0.81897,-0.66322 2.14515,-1.4341 2.97105,-1.72702 1.34729,-0.47785 2.97438,-0.74569 4.20445,-0.69212 2.33634,0.10175 4.1276,0.96838 4.61977,2.23511 0.12049,0.3101 0.006,0.28188 1.51856,0.37428 0.69353,0.0424 0.95739,0.0918 1.29138,0.24182 0.19796,0.0889 0.41291,0.28446 0.35222,0.32039 -0.0657,0.0389 -1.09276,0.3629 -1.43193,0.45173 -0.18627,0.0488 -0.60398,0.13687 -0.92824,0.19574 -0.32426,0.0589 -0.60756,0.11816 -0.62956,0.13176 -0.0661,0.0409 -0.51649,1.00736 -0.78736,1.68969 -0.13956,0.35155 -0.37111,1.0183 -0.51456,1.48167 -0.14345,0.46337 -0.39462,1.1854 -0.55816,1.6045 -0.37592,0.96338 -0.60167,1.65499 -0.92466,2.83283 -0.14099,0.51416 -0.30607,1.11581 -0.36683,1.337 -0.30842,1.12278 -0.81962,2.08867 -1.6063,3.03503 -0.15858,0.19077 -0.42168,0.51185 -0.58467,0.7135 -0.36342,0.44965 -1.10462,1.17272 -1.5875,1.5487 -1.81489,1.41308 -4.99627,2.98433 -8.08541,3.99329 -0.47717,0.15585 -0.87507,0.29085 -0.88422,0.3 -0.009,0.009 0.14104,0.18389 0.33374,0.38831 0.23873,0.25325 0.42289,0.40687 0.57798,0.48215 0.12518,0.0607 0.26064,0.13958 0.30101,0.17516 0.0404,0.0356 0.19723,0.1263 0.34857,0.20161 0.15134,0.0753 0.39899,0.24237 0.55033,0.37127 0.26498,0.22567 0.48938,0.35125 0.72552,0.406 0.0927,0.0215 0.13083,7.9e-4 0.2244,-0.1219 0.19222,-0.25201 0.48942,-0.14895 0.48942,0.16972 0,0.13352 0.0115,0.14812 0.11641,0.14771 0.064,-2.5e-4 0.27835,-0.0762 0.47625,-0.16888 0.29594,-0.13852 0.40494,-0.16823 0.61384,-0.16738 0.14067,5.3e-4 0.30121,0.028 0.35983,0.0616 0.15426,0.0882 0.25302,0.0778 0.55506,-0.0586 0.366,-0.16518 0.6235,-0.19447 1.00686,-0.11454 0.54184,0.11298 0.87405,0.33239 1.06246,0.7017 0.1185,0.23229 0.10926,0.23585 -0.095,0.0366 -0.21189,-0.2067 -0.62957,-0.41698 -0.82836,-0.41702 -0.11984,-3e-5 -0.1366,0.012 -0.11431,0.0823 0.0408,0.1284 -0.12618,0.20584 -0.50725,0.23528 -0.54791,0.0423 -0.52307,0.0282 -0.53778,0.3071 l -0.0128,0.24314 -0.0528,-0.16934 c -0.0939,-0.30124 -0.10353,-0.30607 -0.35681,-0.17889 -0.26312,0.13212 -0.8313,0.19997 -1.67507,0.20002 -0.28522,2e-5 -0.51858,0.0116 -0.51858,0.0257 0,0.0141 0.0576,0.0983 0.12792,0.18718 0.30825,0.3892 0.92029,0.49789 1.41616,0.25151 0.40687,-0.20217 0.82934,-0.16027 1.08058,0.10716 l 0.0949,0.10106 -0.15327,-0.047 c -0.16912,-0.0519 -0.17329,-0.0504 -0.21267,0.078 -0.0241,0.0786 -0.006,0.0931 0.14389,0.11707 0.28728,0.0459 0.69498,-0.0453 1.0938,-0.24488 0.81199,-0.40626 1.27135,-0.48848 1.77634,-0.31795 0.31745,0.10721 0.63816,0.38007 0.76575,0.6515 0.1439,0.30613 0.11464,0.3616 -0.0825,0.15641 -0.20077,-0.20894 -0.43748,-0.37183 -0.59653,-0.4105 -0.0881,-0.0214 -0.11803,-0.01 -0.13839,0.0545 -0.0437,0.13763 -0.20598,0.18434 -0.41842,0.1204 -0.19871,-0.0598 -0.32969,-0.0272 -0.90653,0.22552 l -0.22111,0.0969 0.0261,0.24928 c 0.0143,0.1371 0.0138,0.24928 -0.001,0.24928 -0.0149,0 -0.0272,-0.0283 -0.0272,-0.0628 z"
       id="path1" />
  </g>
</svg>
